<svg width="19" height="19" viewBox="0 0 19 19" fill="none" xmlns="http://www.w3.org/2000/svg">
<g clip-path="url(#clip0)">
<path fill-rule="evenodd" clip-rule="evenodd" d="M16.701 3.27998C16.8041 5.12458 15.352 6.64259 13.5351 6.64259C11.8833 6.64259 10.5157 5.37638 10.3743 3.74791H9.50871C9.20125 3.74791 8.95193 3.49858 8.95193 3.19127C8.95193 2.88381 9.20125 2.63463 9.50871 2.63463H10.3622V1.63282C10.3622 0.712327 11.1117 -0.0371094 12.0322 -0.0371094H15.0382C15.9587 -0.0371094 16.7081 0.712472 16.7081 1.63282C16.7081 2.0532 16.701 2.86656 16.701 3.27998ZM12.714 10.481C12.9302 10.2635 13.2816 10.2625 13.499 10.4786C13.7163 10.6949 13.7173 11.0463 13.5012 11.2637L11.4755 13.3036V18.4063C11.4755 18.7136 11.2263 18.9629 10.9189 18.9629C10.6114 18.9629 10.3622 18.7136 10.3622 18.4063V14.4248C10.0364 14.7529 9.8569 14.9732 9.38941 15.117C9.15458 15.1892 8.91612 15.215 8.68375 15.215H4.00782C3.0882 15.215 2.33789 14.4647 2.33789 13.5451C2.33789 12.6255 3.0882 11.8752 4.00782 11.8752H8.18495L11.1776 8.81074C11.471 8.48458 11.8318 8.21887 12.238 8.0355C14.3338 7.08964 16.7081 8.64288 16.7081 10.9287V18.4063C16.7081 18.7136 16.4589 18.9629 16.1514 18.9629C15.844 18.9629 15.5948 18.7136 15.5948 18.4063V10.9287C15.5948 9.44044 14.0443 8.43964 12.6946 9.04876C12.3108 9.22213 12.2306 9.36782 11.943 9.61613L8.84306 12.7903C8.74101 12.9115 8.58808 12.9885 8.41717 12.9885H4.00782C3.52278 12.9885 3.25968 13.5823 3.61512 13.9378C3.7163 14.039 3.85532 14.1017 4.00782 14.1017H8.68375C8.90597 14.1017 9.14617 14.0739 9.30026 13.9188L12.714 10.481ZM6.42848 6.79088V7.00499C6.42848 7.31244 6.1793 7.56163 5.87184 7.56163C5.56438 7.56163 5.3152 7.31244 5.3152 7.00499V6.79088H4.42457V9.64845H7.31911V6.79088H6.42848ZM3.86779 5.6776C3.56047 5.6776 3.31114 5.92693 3.31114 6.23424V10.2051C3.31114 10.5126 3.56047 10.7617 3.86779 10.7617H7.87575C8.18321 10.7617 8.43239 10.5126 8.43239 10.2051V6.23424C8.43239 5.92693 8.18321 5.6776 7.87575 5.6776H3.86779ZM11.4942 3.74791C11.6309 4.76016 12.4982 5.52916 13.5352 5.52916C14.5721 5.52916 15.4394 4.76016 15.5761 3.74791H11.4942ZM15.0382 1.07617H12.0322C11.7263 1.07617 11.4755 1.32695 11.4755 1.63282V2.63463H15.5948V1.63282C15.5948 1.32695 15.344 1.07617 15.0382 1.07617Z" fill="#F46B45"/>
</g>
<defs>
<clipPath id="clip0">
<rect width="19" height="19" fill="white"/>
</clipPath>
</defs>
</svg>
