<svg width="20" height="20" viewBox="0 0 20 20" fill="none" xmlns="http://www.w3.org/2000/svg">
<g clip-path="url(#clip0)">
<path d="M13.9598 5.0503L10.0001 9.01002L6.04027 5.05021C5.7671 4.77704 5.32354 4.77704 5.05029 5.0503C4.77712 5.32346 4.77712 5.76702 5.05029 6.04018L9.0101 10L5.05029 13.9598C4.77712 14.233 4.77712 14.6765 5.05029 14.9497C5.32354 15.223 5.7671 15.223 6.04027 14.9498L10.0001 10.99L13.9598 14.9497C14.2331 15.223 14.6766 15.223 14.9498 14.9498C15.223 14.6765 15.223 14.233 14.9498 13.9597L10.9901 10L14.9498 6.04027C15.223 5.76702 15.223 5.32346 14.9498 5.05021C14.6766 4.77704 14.2331 4.77704 13.9598 5.0503Z" fill="white"/>
</g>
<defs>
<clipPath id="clip0">
<rect width="14" height="14" fill="white" transform="translate(0.100586 10) rotate(-45)"/>
</clipPath>
</defs>
</svg>
