<svg width="18" height="16" viewBox="0 0 18 16" fill="none" xmlns="http://www.w3.org/2000/svg">
<path d="M10.4062 0.125H17.1562C17.6222 0.125 18 0.502754 18 0.96875V6.59375C18 7.05975 17.6222 7.4375 17.1562 7.4375H10.4062C9.94025 7.4375 9.5625 7.05975 9.5625 6.59375V0.96875C9.5625 0.502754 9.94025 0.125 10.4062 0.125ZM7.59375 0.125H0.84375C0.377754 0.125 0 0.502754 0 0.96875V6.59375C0 7.05975 0.377754 7.4375 0.84375 7.4375H7.59375C8.05975 7.4375 8.4375 7.05975 8.4375 6.59375V0.96875C8.4375 0.502754 8.05975 0.125 7.59375 0.125ZM0 9.40625V15.0312C0 15.4972 0.377754 15.875 0.84375 15.875H7.59375C8.05975 15.875 8.4375 15.4972 8.4375 15.0312V9.40625C8.4375 8.94025 8.05975 8.5625 7.59375 8.5625H0.84375C0.377754 8.5625 0 8.94025 0 9.40625ZM10.4062 15.875H17.1562C17.6222 15.875 18 15.4972 18 15.0312V9.40625C18 8.94025 17.6222 8.5625 17.1562 8.5625H10.4062C9.94025 8.5625 9.5625 8.94025 9.5625 9.40625V15.0312C9.5625 15.4972 9.94025 15.875 10.4062 15.875Z" fill="url(#paint0_linear)"/>
<defs>
<linearGradient id="paint0_linear" x1="9" y1="0.125" x2="-4.76704e-07" y2="16" gradientUnits="userSpaceOnUse">
<stop stop-color="#F46B45"/>
<stop offset="1" stop-color="#EEA849"/>
</linearGradient>
</defs>
</svg>
