<svg width="18" height="18" viewBox="0 0 18 18" fill="none" xmlns="http://www.w3.org/2000/svg">
<g clip-path="url(#clip0)">
<path d="M17.9753 6.90158C17.9162 6.72055 17.761 6.59124 17.5726 6.56169L11.9571 5.7637L9.43014 0.683873C9.34517 0.51393 9.17153 0.406792 8.98312 0.406792C8.7947 0.406792 8.62106 0.51393 8.53609 0.687567L6.04236 5.78217L0.42685 6.61711C0.238435 6.64666 0.0832697 6.77597 0.0241591 6.95699C-0.0349516 7.13802 0.0167702 7.33752 0.153464 7.46682L4.2284 11.4162L3.28633 17.0095C3.25308 17.1979 3.33066 17.3863 3.48583 17.4972C3.5708 17.56 3.67424 17.5932 3.77768 17.5932C3.85896 17.5932 3.93654 17.5747 4.01043 17.5341L9.02375 14.8778L14.0519 17.5046C14.1257 17.5415 14.2033 17.56 14.2809 17.56C14.5543 17.56 14.7797 17.3346 14.7797 17.0612C14.7797 17.0206 14.776 16.9836 14.7649 16.9467L13.7932 11.3866L17.8423 7.4151C17.9864 7.2821 18.0344 7.0826 17.9753 6.90158ZM12.914 10.8583C12.7958 10.9728 12.744 11.1391 12.7736 11.3016L13.6196 16.1524L9.25281 13.8729C9.10872 13.7954 8.93509 13.7991 8.78731 13.8729L4.43529 16.1783L5.25176 11.3201C5.27762 11.1575 5.22589 10.995 5.10767 10.8805L1.57581 7.45204L6.44875 6.72794C6.6113 6.70208 6.75169 6.60233 6.82188 6.45455L8.98681 2.03233L11.1813 6.44347C11.2552 6.59124 11.3956 6.69099 11.5581 6.71685L16.4347 7.4114L12.914 10.8583Z" fill="#F46B45"/>
<rect x="5" y="11" width="3" height="1" fill="#F46B45"/>
<rect x="4" y="14" width="2" height="2" fill="#F46B45"/>
<rect x="5" y="14" width="1" height="2" fill="#F46B45"/>
<rect x="6" y="13.5" width="1" height="2" fill="#F46B45"/>
<rect x="7" y="13.5" width="4" height="1" fill="#F46B45"/>
<rect x="11" y="12.5" width="1" height="3" fill="#F46B45"/>
<rect x="4" y="13" width="2" height="2" fill="#F46B45"/>
<rect x="10" y="13" width="4" height="2" fill="#F46B45"/>
<rect x="13" y="15" width="1" height="2" fill="#F46B45"/>
<rect x="12" y="11" width="1" height="5" fill="#F46B45"/>
<rect x="12.5" y="12" width="1" height="2" fill="#F46B45"/>
<rect x="4" y="16" width="1" height="1" fill="#F46B45"/>
</g>
<rect x="6" y="11" width="6" height="3" fill="#F46B45"/>
<rect x="4.5" y="12.5" width="3" height="1" fill="#F46B45"/>
<rect x="5" y="12" width="3" height="3" fill="#F46B45"/>
<defs>
<clipPath id="clip0">
<rect width="18" height="18" fill="white"/>
</clipPath>
</defs>
</svg>
